<?xml version="1.0" encoding="UTF-8"?>
<svg id="Layer_1" xmlns="http://www.w3.org/2000/svg" version="1.1" viewBox="0 0 476 184.1">
  <!-- Generator: Adobe Illustrator 29.1.0, SVG Export Plug-In . SVG Version: 2.1.0 Build 142)  -->
  <defs>
    <style>
      .st0 {
        fill: #ffffff;
      }
    </style>
  </defs>
  <path class="st0" d="M80.2,76.1c.4.8.8,1.5,1.2,2.3,0,0,0,0,0,0-.7-1-1.5-1.9-2.2-2.9-16.3,27.9-47.9,33.7-47.9,33.7,0,0,0,0,0,0,2.4-7.9,5.9-14.6,10-20.3-1.6,3.3-3,6.8-4.1,10.5,0,0,24.5-4.5,41.5-24.6-17-20.1-41.5-24.6-41.5-24.6,1.1,3.8,2.5,7.3,4.1,10.5-4.1-5.7-7.6-12.4-10-20.3,0,0,0,0,0,0,0,0,31.6,5.8,47.9,33.7.8-.9,1.5-1.9,2.2-2.9,0,0,0,0,0,0-.4.9-.9,1.8-1.4,2.7,4.7-3.1,20.4-15,20.4-34.3s-12.4-22.6-19.5-24.8c-1.7-.6-5.3-.9-7.7-1-1.4,0-9.4-.1-9.4-.1H16.5c-4.6,0-8.4,3.7-8.4,8.3v107.1c0,4.6,3.7,8.3,8.4,8.3h44.1c19.5,0,39.9-5.2,39.9-28.8s-15.5-28.2-20.2-32.5ZM31.2,75s0,0,0,0c0,0,0,0,0,0h0c2.5-3.3,5-5.2,7.4-6.2-1.2,1-2.5,4.6-3.7,6.2,1.2,1.6,2.5,5.2,3.7,6.2-2.4-1-4.9-2.9-7.4-6.2h0Z"/>
  <rect class="st0" x="59.2" y="154.8" width="2.6" height="22.9"/>
  <polygon class="st0" points="134.2 173.1 119.8 154.8 117.4 154.8 117.4 177.7 119.9 177.7 119.9 158.9 134.7 177.7 136.7 177.7 136.7 154.8 134.2 154.8 134.2 173.1"/>
  <polygon class="st0" points="209 173.1 194.6 154.8 192.2 154.8 192.2 177.7 194.7 177.7 194.7 158.9 209.4 177.7 211.5 177.7 211.5 154.8 209 154.8 209 173.1"/>
  <path class="st0" d="M287.4,158c-1-1.1-2.2-1.9-3.7-2.6-1.4-.6-3-.9-4.7-.9s-3.3.3-4.8,1c-1.4.6-2.7,1.5-3.7,2.6-1,1.1-1.8,2.3-2.4,3.8-.6,1.4-.8,2.9-.8,4.5s.3,3.1.8,4.5c.6,1.4,1.3,2.7,2.4,3.8,1,1.1,2.2,1.9,3.7,2.6,1.4.6,3,.9,4.7.9s3.3-.3,4.8-1c1.4-.6,2.7-1.5,3.7-2.6,1-1.1,1.8-2.3,2.4-3.8.6-1.4.8-2.9.8-4.5s-.3-3.1-.8-4.5c-.6-1.4-1.3-2.7-2.4-3.8ZM287.2,170c-.4,1.1-1.1,2.1-1.8,3-.8.8-1.7,1.5-2.8,2-1.1.5-2.3.7-3.6.7s-2.5-.3-3.6-.8c-1.1-.5-2.1-1.2-2.9-2-.8-.8-1.4-1.8-1.9-3-.4-1.2-.7-2.4-.7-3.7s.2-2.5.7-3.7c.4-1.1,1.1-2.1,1.8-3,.8-.8,1.7-1.5,2.8-2,1.1-.5,2.3-.7,3.6-.7s2.5.3,3.6.8c1.1.5,2.1,1.2,2.9,2,.8.8,1.4,1.9,1.9,3,.4,1.2.7,2.4.7,3.7s-.2,2.5-.7,3.7Z"/>
  <polygon class="st0" points="352.7 174.6 344.6 154.9 341.7 154.9 351.5 177.9 353.8 177.9 363.6 154.9 360.8 154.9 352.7 174.6"/>
  <path class="st0" d="M422.3,154.7l-10.4,23h2.6l2.7-6h12.4l2.7,6h2.8l-10.4-23h-2.4ZM418.2,169.4l5.2-11.7,5.2,11.7h-10.4Z"/>
  <polygon class="st0" points="127.9 30.8 117.7 30.8 117.7 120.4 176.8 120.4 176.8 110.7 127.9 110.7 127.9 30.8"/>
  <path class="st0" d="M223.6,31c-23.9,0-44.3,20.4-44.3,44.7s20.4,44.8,44.3,44.8,44.2-20.5,44.2-44.8-20.2-44.7-44.2-44.7ZM223.6,111.5c-18.6,0-34.4-16.4-34.4-35.8s15.7-35.7,34.4-35.7,34.3,16.4,34.3,35.7-15.6,35.8-34.3,35.8Z"/>
  <path class="st0" d="M325.3,31c-23.9,0-44.3,20.4-44.3,44.7s20.4,44.8,44.3,44.8,44.2-20.5,44.2-44.8-20.2-44.7-44.2-44.7ZM325.3,111.5c-18.6,0-34.4-16.4-34.4-35.8s15.7-35.7,34.4-35.7,34.3,16.4,34.3,35.7-15.6,35.8-34.3,35.8Z"/>
  <polygon class="st0" points="459.3 31.2 426.1 93.5 393 31.2 382.8 31.2 382.8 120.6 393 120.6 393 53.1 426.1 115.4 459.3 53.1 459.3 120.6 469.4 120.6 469.4 31.2 459.3 31.2"/>
</svg>
